<?xml version="1.0" encoding="UTF-8"?>
<svg id="Calque_2" data-name="Calque 2" xmlns="http://www.w3.org/2000/svg" viewBox="0 0 1000.17 772.04">
  <defs>
    <style>
      .cls-1 {
        fill: #1c5812;
      }

      .cls-2 {
        fill: #257517;
      }

      .cls-3 {
        fill: #509046;
      }
    </style>
  </defs>
  <g id="Calque_7" data-name="Calque 7">
    <g>
      <polygon class="cls-1" points="348.97 629 348.97 764.28 140.04 629 348.97 629"/>
      <polygon class="cls-1" points="341.95 769.04 0 769.04 0 280.08 140.04 280.08 140.04 629 341.95 769.04"/>
    </g>
    <g>
      <polygon class="cls-2" points="690.92 629 348.97 629 348.97 140.04 489.01 140.04 489.01 488.96 690.92 629"/>
      <polygon class="cls-2" points="697.94 488.96 697.94 624.24 489.01 488.96 697.94 488.96"/>
    </g>
    <path class="cls-3" d="m977.43,80.83l-38.03-42.9L697.94,0v488.96l242.03-38.03,37.46-42.27v-135.5l-29.07-28.41,29.07-28.42V80.83Zm-75.62,284.82l-33.03,34.13-54.62,6.13v-129.05l54.63-1.23,33.02,29.7v60.32Zm0-182.03l-33.02,29.68-54.63-1.23V83.04l54.64,6.13,33.01,34.13v60.32Z"/>
    <polygon class="cls-2" points="697.94 484.2 697.94 488.96 690.92 488.96 489.01 348.92 697.94 484.2"/>
    <polygon class="cls-1" points="348.97 624.24 348.97 629 341.95 629 140.04 488.96 348.97 624.24"/>
    <polygon class="cls-2" points="348.97 764.04 697.94 768.04 348.97 772.04 348.97 764.04 348.97 764.04"/>
    <polygon class="cls-3" points="697.94 623 977.43 627 697.94 631 697.94 623 697.94 623"/>
    <polygon class="cls-3" points="697.94 484.96 998.36 487.16 996.57 488.96 998.36 244.48 1000.15 488.96 1000.17 490.74 998.36 490.75 697.94 492.96 697.94 484.96 697.94 484.96"/>
  </g>
</svg>